<?xml version="1.0" encoding="iso-8859-1"?>
<!-- Uploaded to: SVG Repo, www.svgrepo.com, Generator: SVG Repo Mixer Tools -->
<svg height="800px" width="800px" version="1.1" id="Layer_1" xmlns="http://www.w3.org/2000/svg" xmlns:xlink="http://www.w3.org/1999/xlink" 
	 viewBox="0 0 511.999 511.999" xml:space="preserve">
<path style="fill:#FFD3CA;" d="M19.484,498.756c-5.963,0-10.796-4.834-10.796-10.796V214.853c0-3.263,1.477-6.352,4.017-8.402
	L249.221,15.636c1.977-1.595,4.377-2.393,6.779-2.393c2.4,0,4.8,0.798,6.779,2.393l236.516,190.815
	c2.54,2.049,4.017,5.139,4.017,8.402V487.96c0,5.962-4.834,10.796-10.796,10.796L19.484,498.756L19.484,498.756z"/>
<path style="fill:#FFFFFF;" d="M412.197,471.166c0,2.863-2.343,5.207-5.207,5.207H105.01c-2.863,0-5.207-2.343-5.207-5.207V67.646
	c0-2.863,2.343-5.207,5.207-5.207h301.982c2.863,0,5.207,2.343,5.207,5.207v403.52H412.197z"/>
<path style="fill:#FF8163;" d="M499.295,216.125L262.779,406.94c-1.978,1.595-4.379,2.393-6.779,2.393s-4.801-0.798-6.779-2.393
	L12.705,216.125c-1.585-1.278-2.753-2.96-3.41-4.836c-0.396,1.133-0.606,2.336-0.606,3.565v273.107
	c0,5.962,4.833,10.796,10.796,10.796h473.031c5.961,0,10.796-4.834,10.796-10.796V214.853c0-1.229-0.21-2.433-0.606-3.565
	C502.05,213.164,500.88,214.847,499.295,216.125z"/>
<path style="fill:#F49889;" d="M499.295,216.125L262.779,406.94c-1.978,1.595-4.379,2.393-6.779,2.393s-4.801-0.798-6.779-2.393
	L12.705,216.125c-1.585-1.278-2.753-2.96-3.41-4.836c-0.396,1.133-0.606,2.336-0.606,3.565v273.107
	c0,5.962,4.833,10.796,10.796,10.796h473.031c5.961,0,10.796-4.834,10.796-10.796V214.853c0-1.229-0.21-2.433-0.606-3.565
	C502.05,213.164,500.88,214.847,499.295,216.125z"/>
<circle style="fill:#FFED84;" cx="408.673" cy="403.344" r="32.802"/>
<g>
	<path style="fill:#FF8163;" d="M502.706,211.287c-0.657,1.877-1.827,3.559-3.41,4.836l-27.223,21.963v229.43H39.927v-229.43
		l-27.223-21.963c-1.585-1.278-2.753-2.96-3.41-4.836c-0.396,1.133-0.606,2.336-0.606,3.565V487.96
		c0,5.962,4.833,10.796,10.796,10.796h473.032c5.961,0,10.796-4.834,10.796-10.796V214.853
		C503.312,213.625,503.103,212.42,502.706,211.287z"/>
	<path style="fill:#FF8163;" d="M256,318.348c-2.424,0-4.747-0.964-6.459-2.677l-63.014-63.069
		c-8.91-8.908-13.816-20.753-13.816-33.352s4.906-24.444,13.816-33.352c8.908-8.909,20.753-13.816,33.353-13.816
		c12.597,0,24.443,4.907,33.353,13.816l2.769,2.768l2.766-2.768c8.91-8.909,20.753-13.816,33.354-13.816
		c12.597,0,24.443,4.907,33.353,13.816c8.906,8.908,13.816,20.753,13.816,33.352c0,12.598-4.909,24.444-13.816,33.352
		l-63.015,63.069C260.745,317.384,258.422,318.348,256,318.348z"/>
</g>
<path d="M511.891,212.894c-0.515-5.07-3.049-9.904-7.141-13.205l-83.865-67.66V68.232c0-7.985-6.495-14.48-14.48-14.48h-82.547
	L268.232,8.875c-3.454-2.785-7.798-4.32-12.232-4.32c-4.439,0-8.784,1.535-12.234,4.32L188.14,53.752h-82.546
	c-7.985,0-14.48,6.495-14.48,14.48v63.797L7.251,199.689C2.645,203.404,0,209.097,0,214.854v273.107
	c0,10.743,8.74,19.483,19.483,19.483h473.034c10.743,0,19.483-8.74,19.483-19.483V214.854
	C511.964,214.201,511.927,213.547,511.891,212.894C511.869,212.678,511.956,213.544,511.891,212.894z M420.885,219.975h5.89
	c4.799,0,8.688-3.89,8.688-8.688s-3.889-8.688-8.688-8.688h-5.89v-48.246l59.801,48.246H462.18c-4.799,0-8.688,3.89-8.688,8.688
	s3.889,8.688,8.688,8.688h18.505l-14.067,11.349c-0.002,0.001-0.003,0.003-0.006,0.005l-45.728,36.892v-48.245H420.885z
	 M254.678,22.397c0.477-0.385,0.982-0.466,1.322-0.466c0.339,0,0.844,0.081,1.324,0.468l12.845,10.363l26.018,20.991H244.15h-28.337
	L254.678,22.397z M45.391,231.332c-0.003-0.002-0.005-0.005-0.008-0.007l-14.067-11.349h19.546h40.255v48.246l-40.255-32.476
	L45.391,231.332z M91.115,154.355v22.862v25.385H59.651H31.314L91.115,154.355z M494.624,231.055V487.96
	c0,1.162-0.945,2.107-2.107,2.107H19.483c-1.162,0-2.107-0.945-2.107-2.107V231.055l0,0L31.24,242.24v225.277
	c0,4.798,3.889,8.688,8.688,8.688h98.404c4.799,0,8.688-3.89,8.688-8.688s-3.889-8.688-8.688-8.688H48.616v-202.57l106.126,85.621
	c3.732,3.013,9.203,2.427,12.216-1.307l0,0c3.013-3.735,2.427-9.204-1.307-12.216l-34.61-27.921l-22.551-18.193V71.128h22.551
	h272.466V282.24L257.326,400.176c-0.482,0.388-0.987,0.469-1.326,0.469c-0.339,0-0.844-0.081-1.324-0.468L194.81,351.88
	c-3.736-3.014-9.203-2.428-12.216,1.306c0,0,0,0-0.001,0.001c-3.013,3.735-2.427,9.203,1.307,12.216l59.865,48.297
	c3.451,2.786,7.796,4.321,12.234,4.321c4.433,0,8.777-1.534,12.234-4.32l195.152-157.442v202.57H175.818
	c-4.799,0-8.688,3.89-8.688,8.688s3.889,8.688,8.688,8.688h296.253c4.798,0,8.688-3.89,8.688-8.688V242.24L494.624,231.055
	L494.624,231.055z"/>
<path d="M408.674,444.835c22.878,0,41.489-18.612,41.489-41.489c0-22.878-18.612-41.489-41.489-41.489
	c-22.877,0-41.488,18.612-41.488,41.489C367.186,426.223,385.798,444.835,408.674,444.835z M408.674,379.232
	c13.296,0,24.114,10.817,24.114,24.114c0,13.296-10.818,24.114-24.114,24.114c-13.297,0-24.113-10.817-24.113-24.114
	C384.561,390.05,395.378,379.232,408.674,379.232z"/>
<path d="M155.152,388.931H69.726c-4.799,0-8.688,3.89-8.688,8.688s3.889,8.688,8.688,8.688h85.426c4.799,0,8.688-3.89,8.688-8.688
	S159.951,388.931,155.152,388.931z"/>
<path d="M137.273,421.316H69.726c-4.799,0-8.688,3.89-8.688,8.688s3.889,8.688,8.688,8.688h67.546c4.799,0,8.688-3.89,8.688-8.688
	S142.071,421.316,137.273,421.316z"/>
<path d="M243.397,321.812c3.366,3.369,7.842,5.223,12.603,5.223c4.759,0,9.235-1.856,12.603-5.224l63.013-63.068
	c10.549-10.552,16.36-24.577,16.36-39.493c0-14.916-5.81-28.942-16.361-39.496c-10.549-10.549-24.576-16.36-39.495-16.36
	c-13.378,0-26.039,4.672-36.123,13.246c-10.08-8.573-22.741-13.246-36.12-13.246c-14.92,0-28.945,5.81-39.495,16.36
	c-10.55,10.548-16.361,24.575-16.361,39.496c0,14.922,5.812,28.948,16.357,39.491L243.397,321.812z M192.671,192.042
	c5.761-5.762,13.029-9.462,20.914-10.752c2.062-0.337,4.163-0.519,6.293-0.519c10.278,0,19.941,4.003,27.209,11.271l2.768,2.769
	c1.63,1.63,3.839,2.545,6.144,2.545c0,0,0.001,0,0.002,0c2.304,0,4.514-0.917,6.144-2.547l2.763-2.765
	c7.27-7.269,16.934-11.271,27.212-11.271c10.277,0,19.94,4.003,27.208,11.271c7.268,7.27,11.271,16.934,11.271,27.209
	c0,10.276-4.003,19.938-11.273,27.21l-47.903,47.944l-15.111,15.124c-0.171,0.169-0.461,0.166-0.627,0.001l-63.017-63.073
	c-7.268-7.265-11.27-16.927-11.27-27.207C181.4,208.971,185.402,199.309,192.671,192.042z"/>
</svg>